<svg width="60" height="40" viewBox="0 0 78 59" fill="none" xmlns="http://www.w3.org/2000/svg">
<path d="M30.6152 16.4062L38.9824 37.2891L47.3496 16.4062H51.7266V42H48.3516V32.0332L48.668 21.2754L40.2656 42H37.6816L29.2969 21.3281L29.6309 32.0332V42H26.2559V16.4062H30.6152Z" fill="#F23838"/>
<path d="M30.6152 16.4062L38.9824 37.2891L47.3496 16.4062H51.7266V42H48.3516V32.0332L48.668 21.2754L40.2656 42H37.6816L29.2969 21.3281L29.6309 32.0332V42H26.2559V16.4062H30.6152Z" fill="#535060"/>
<path d="M30.6152 16.4062L31.5435 16.0343L31.2918 15.4062H30.6152V16.4062ZM38.9824 37.2891L38.0542 37.661L38.9824 39.9777L39.9107 37.661L38.9824 37.2891ZM47.3496 16.4062V15.4062H46.673L46.4213 16.0343L47.3496 16.4062ZM51.7266 16.4062H52.7266V15.4062H51.7266V16.4062ZM51.7266 42V43H52.7266V42H51.7266ZM48.3516 42H47.3516V43H48.3516V42ZM48.3516 32.0332L47.352 32.0038L47.3516 32.0185V32.0332H48.3516ZM48.668 21.2754L49.6675 21.3048L47.7412 20.8997L48.668 21.2754ZM40.2656 42V43H40.9393L41.1924 42.3757L40.2656 42ZM37.6816 42L36.755 42.3759L37.0081 43H37.6816V42ZM29.2969 21.3281L30.2235 20.9523L28.2974 21.3593L29.2969 21.3281ZM29.6309 32.0332H30.6309V32.0176L30.6304 32.002L29.6309 32.0332ZM29.6309 42V43H30.6309V42H29.6309ZM26.2559 42H25.2559V43H26.2559V42ZM26.2559 16.4062V15.4062H25.2559V16.4062H26.2559ZM29.687 16.7782L38.0542 37.661L39.9107 36.9171L31.5435 16.0343L29.687 16.7782ZM39.9107 37.661L48.2779 16.7782L46.4213 16.0343L38.0542 36.9171L39.9107 37.661ZM47.3496 17.4062H51.7266V15.4062H47.3496V17.4062ZM50.7266 16.4062V42H52.7266V16.4062H50.7266ZM51.7266 41H48.3516V43H51.7266V41ZM49.3516 42V32.0332H47.3516V42H49.3516ZM49.3511 32.0626L49.6675 21.3048L47.6684 21.246L47.352 32.0038L49.3511 32.0626ZM47.7412 20.8997L39.3389 41.6243L41.1924 42.3757L49.5947 21.6511L47.7412 20.8997ZM40.2656 41H37.6816V43H40.2656V41ZM38.6083 41.6241L30.2235 20.9523L28.3702 21.704L36.755 42.3759L38.6083 41.6241ZM28.2974 21.3593L28.6313 32.0644L30.6304 32.002L30.2964 21.2969L28.2974 21.3593ZM28.6309 32.0332V42H30.6309V32.0332H28.6309ZM29.6309 41H26.2559V43H29.6309V41ZM27.2559 42V16.4062H25.2559V42H27.2559ZM26.2559 17.4062H30.6152V15.4062H26.2559V17.4062Z" fill="#F23838"/>
<path d="M30.6152 16.4062L31.5435 16.0343L31.2918 15.4062H30.6152V16.4062ZM38.9824 37.2891L38.0542 37.661L38.9824 39.9777L39.9107 37.661L38.9824 37.2891ZM47.3496 16.4062V15.4062H46.673L46.4213 16.0343L47.3496 16.4062ZM51.7266 16.4062H52.7266V15.4062H51.7266V16.4062ZM51.7266 42V43H52.7266V42H51.7266ZM48.3516 42H47.3516V43H48.3516V42ZM48.3516 32.0332L47.352 32.0038L47.3516 32.0185V32.0332H48.3516ZM48.668 21.2754L49.6675 21.3048L47.7412 20.8997L48.668 21.2754ZM40.2656 42V43H40.9393L41.1924 42.3757L40.2656 42ZM37.6816 42L36.755 42.3759L37.0081 43H37.6816V42ZM29.2969 21.3281L30.2235 20.9523L28.2974 21.3593L29.2969 21.3281ZM29.6309 32.0332H30.6309V32.0176L30.6304 32.002L29.6309 32.0332ZM29.6309 42V43H30.6309V42H29.6309ZM26.2559 42H25.2559V43H26.2559V42ZM26.2559 16.4062V15.4062H25.2559V16.4062H26.2559ZM29.687 16.7782L38.0542 37.661L39.9107 36.9171L31.5435 16.0343L29.687 16.7782ZM39.9107 37.661L48.2779 16.7782L46.4213 16.0343L38.0542 36.9171L39.9107 37.661ZM47.3496 17.4062H51.7266V15.4062H47.3496V17.4062ZM50.7266 16.4062V42H52.7266V16.4062H50.7266ZM51.7266 41H48.3516V43H51.7266V41ZM49.3516 42V32.0332H47.3516V42H49.3516ZM49.3511 32.0626L49.6675 21.3048L47.6684 21.246L47.352 32.0038L49.3511 32.0626ZM47.7412 20.8997L39.3389 41.6243L41.1924 42.3757L49.5947 21.6511L47.7412 20.8997ZM40.2656 41H37.6816V43H40.2656V41ZM38.6083 41.6241L30.2235 20.9523L28.3702 21.704L36.755 42.3759L38.6083 41.6241ZM28.2974 21.3593L28.6313 32.0644L30.6304 32.002L30.2964 21.2969L28.2974 21.3593ZM28.6309 32.0332V42H30.6309V32.0332H28.6309ZM29.6309 41H26.2559V43H29.6309V41ZM27.2559 42V16.4062H25.2559V42H27.2559ZM26.2559 17.4062H30.6152V15.4062H26.2559V17.4062Z" fill="#535060"/>
<path d="M3.20883 42V16.4062H11.576C14.3534 16.4062 16.4393 16.9805 17.8338 18.1289C19.2401 19.2773 19.9432 20.9766 19.9432 23.2266C19.9432 24.4219 19.6034 25.4824 18.9237 26.4082C18.244 27.3223 17.3182 28.0312 16.1463 28.5352C17.5291 28.9219 18.619 29.6602 19.4159 30.75C20.2245 31.8281 20.6287 33.1172 20.6287 34.6172C20.6287 36.9141 19.8846 38.7188 18.3963 40.0312C16.908 41.3438 14.8045 42 12.0858 42H3.20883ZM6.58383 30.0293V39.2402H12.1561C13.7264 39.2402 14.9627 38.8359 15.8651 38.0273C16.7791 37.207 17.2362 36.082 17.2362 34.6523C17.2362 31.5703 15.5604 30.0293 12.2088 30.0293H6.58383ZM6.58383 27.3223H11.6815C13.158 27.3223 14.3358 26.9531 15.2147 26.2148C16.1053 25.4766 16.5506 24.4746 16.5506 23.209C16.5506 21.8027 16.1405 20.7832 15.3202 20.1504C14.4998 19.5059 13.2518 19.1836 11.576 19.1836H6.58383V27.3223ZM71.381 35.3203H60.6584L58.2502 42H54.7697L64.5431 16.4062H67.4963L77.2873 42H73.8244L71.381 35.3203ZM61.6779 32.543H70.3791L66.0197 20.5723L61.6779 32.543Z" fill="#00B074"/>
<path d="M3.20883 42H2.20883V43H3.20883V42ZM3.20883 16.4062V15.4062H2.20883V16.4062H3.20883ZM17.8338 18.1289L17.1981 18.9008L17.2013 18.9034L17.8338 18.1289ZM18.9237 26.4082L19.7261 27.0049L19.7298 27L18.9237 26.4082ZM16.1463 28.5352L15.7513 27.6165L13.1493 28.7354L15.877 29.4982L16.1463 28.5352ZM19.4159 30.75L18.6086 31.3403L18.6159 31.35L19.4159 30.75ZM6.58383 30.0293V29.0293H5.58383V30.0293H6.58383ZM6.58383 39.2402H5.58383V40.2402H6.58383V39.2402ZM15.8651 38.0273L16.5324 38.7721L16.533 38.7716L15.8651 38.0273ZM6.58383 27.3223H5.58383V28.3223H6.58383V27.3223ZM15.2147 26.2148L14.5765 25.4449L14.5715 25.4491L15.2147 26.2148ZM15.3202 20.1504L14.7023 20.9367L14.7094 20.9422L15.3202 20.1504ZM6.58383 19.1836V18.1836H5.58383V19.1836H6.58383ZM4.20883 42V16.4062H2.20883V42H4.20883ZM3.20883 17.4062H11.576V15.4062H3.20883V17.4062ZM11.576 17.4062C14.2401 17.4062 16.0567 17.9609 17.1981 18.9008L18.4695 17.357C16.8219 16.0001 14.4666 15.4062 11.576 15.4062V17.4062ZM17.2013 18.9034C18.3202 19.8172 18.9432 21.1981 18.9432 23.2266H20.9432C20.9432 20.755 20.1599 18.7375 18.4664 17.3544L17.2013 18.9034ZM18.9432 23.2266C18.9432 24.2183 18.6659 25.0695 18.1176 25.8164L19.7298 27C20.5408 25.8953 20.9432 24.6255 20.9432 23.2266H18.9432ZM18.1212 25.8115C17.5588 26.5679 16.7812 27.1736 15.7513 27.6165L16.5414 29.4538C17.8552 28.8889 18.9292 28.0767 19.7261 27.0049L18.1212 25.8115ZM15.877 29.4982C17.0585 29.8286 17.9529 30.4434 18.6086 31.3402L20.2231 30.1598C19.2851 28.8769 17.9998 28.0151 16.4157 27.5721L15.877 29.4982ZM18.6159 31.35C19.28 32.2355 19.6287 33.3078 19.6287 34.6172H21.6287C21.6287 32.9265 21.1689 31.4207 20.2159 30.15L18.6159 31.35ZM19.6287 34.6172C19.6287 36.677 18.9731 38.1893 17.7349 39.2812L19.0578 40.7813C20.7961 39.2482 21.6287 37.1511 21.6287 34.6172H19.6287ZM17.7349 39.2812C16.4874 40.3814 14.6515 41 12.0858 41V43C14.9576 43 17.3287 42.3061 19.0578 40.7813L17.7349 39.2812ZM12.0858 41H3.20883V43H12.0858V41ZM5.58383 30.0293V39.2402H7.58383V30.0293H5.58383ZM6.58383 40.2402H12.1561V38.2402H6.58383V40.2402ZM12.1561 40.2402C13.8979 40.2402 15.3977 39.7889 16.5324 38.7721L15.1977 37.2826C14.5278 37.8829 13.555 38.2402 12.1561 38.2402V40.2402ZM16.533 38.7716C17.6937 37.7299 18.2362 36.3148 18.2362 34.6523H16.2362C16.2362 35.8493 15.8645 36.6842 15.1972 37.2831L16.533 38.7716ZM18.2362 34.6523C18.2362 32.9346 17.7653 31.4689 16.6562 30.449C15.563 29.4437 14.0189 29.0293 12.2088 29.0293V31.0293C13.7503 31.0293 14.7199 31.3854 15.3024 31.9211C15.8691 32.4423 16.2362 33.288 16.2362 34.6523H18.2362ZM12.2088 29.0293H6.58383V31.0293H12.2088V29.0293ZM6.58383 28.3223H11.6815V26.3223H6.58383V28.3223ZM11.6815 28.3223C13.3246 28.3223 14.7524 27.9092 15.8579 26.9805L14.5715 25.4491C13.9192 25.9971 12.9915 26.3223 11.6815 26.3223V28.3223ZM15.8529 26.9847C16.9961 26.0371 17.5506 24.7405 17.5506 23.209H15.5506C15.5506 24.2087 15.2145 24.9161 14.5765 25.445L15.8529 26.9847ZM17.5506 23.209C17.5506 21.6115 17.0775 20.2431 15.931 19.3586L14.7094 20.9422C15.2034 21.3233 15.5506 21.994 15.5506 23.209H17.5506ZM15.938 19.3641C14.8628 18.5193 13.3496 18.1836 11.576 18.1836V20.1836C13.154 20.1836 14.1368 20.4924 14.7023 20.9367L15.938 19.3641ZM11.576 18.1836H6.58383V20.1836H11.576V18.1836ZM5.58383 19.1836V27.3223H7.58383V19.1836H5.58383ZM71.381 35.3203L72.3202 34.9768L72.08 34.3203H71.381V35.3203ZM60.6584 35.3203V34.3203H59.9559L59.7176 34.9812L60.6584 35.3203ZM58.2502 42V43H58.9526L59.1909 42.3392L58.2502 42ZM54.7697 42L53.8355 41.6433L53.3174 43H54.7697V42ZM64.5431 16.4062V15.4062H63.8546L63.6089 16.0495L64.5431 16.4062ZM67.4963 16.4062L68.4302 16.0489L68.1844 15.4062H67.4963V16.4062ZM77.2873 42V43H78.7405L78.2213 41.6427L77.2873 42ZM73.8244 42L72.8852 42.3435L73.1254 43H73.8244V42ZM61.6779 32.543L60.7378 32.202L60.2514 33.543H61.6779V32.543ZM70.3791 32.543V33.543H71.8075L71.3187 32.2008L70.3791 32.543ZM66.0197 20.5723L66.9593 20.2301L66.0178 17.6447L65.0796 20.2313L66.0197 20.5723ZM71.381 34.3203H60.6584V36.3203H71.381V34.3203ZM59.7176 34.9812L57.3094 41.6608L59.1909 42.3392L61.5991 35.6595L59.7176 34.9812ZM58.2502 41H54.7697V43H58.2502V41ZM55.7039 42.3567L65.4773 16.763L63.6089 16.0495L53.8355 41.6433L55.7039 42.3567ZM64.5431 17.4062H67.4963V15.4062H64.5431V17.4062ZM66.5623 16.7636L76.3533 42.3573L78.2213 41.6427L68.4302 16.0489L66.5623 16.7636ZM77.2873 41H73.8244V43H77.2873V41ZM74.7635 41.6565L72.3202 34.9768L70.4419 35.6638L72.8852 42.3435L74.7635 41.6565ZM61.6779 33.543H70.3791V31.543H61.6779V33.543ZM71.3187 32.2008L66.9593 20.2301L65.0801 20.9145L69.4394 32.8852L71.3187 32.2008ZM65.0796 20.2313L60.7378 32.202L62.618 32.8839L66.9598 20.9132L65.0796 20.2313Z" fill="#00B074"/>
</svg>
